# xmcd
#
# Track frame offsets:
#	150
#	11932
#	25070
#	37255
#	50705
#	62472
#	75015
#	87532
#	98262
#	110495
#	122512
#	136402
#	148737
#	163712
#	177307
#	189847
#	202762
#	215092
#	228640
#	241807
#	252927
#	265750
#	276947
#	290705
#	304050
#	315995
#
# Disc length: 4371
#
# Revision: 1
# Processed by: cddbd v1.5.1PL0 Copyright (c) Steve Scherf et al.
# Submitted via: dBpowerAMP V4.0
# Normalized: r0:TDELIM( - )
#
DISCID=6c11111a
DTITLE=Various Artist - Motown The Collection - Here To Stay 1965 - 1966
DYEAR=1900
DGENRE=Soul
TTITLE0=Diana Ross and The Supremes - My World Is Empty Without You
TTITLE1=Shoty Long - Function At The Junction
TTITLE2=Marvin Gaye - One More Heartache
TTITLE3=Marvine Gaye and Kim Weston - It Takes Two
TTITLE4=Temptations - Get Ready
TTITLE5=Marvin Gaye - Take This Heart Of Mine
TTITLE6=Marvelettes - You're The One
TTITLE7=Tammi Terrel - Come On And See Me
TTITLE8=Contours - Just A Little Missunderstanding
TTITLE9=Isley Brothers - I Guess I'll Always Love You
TTITLE10=Gladys Knight and The Pips - Everybody Needs Love
TTITLE11=Smokey Robinson and The Miracles - Whole Lot Of Shakin' In My Heart (Since I Met You)
TTITLE12=Jr Walker and The All Stars - Pucker Up Buttercup
TTITLE13=Jr Walker and The All Stars - How Sweet It Is (To Be Loved By You)
TTITLE14=Diana Ross and The Supremes - You Can't Hurry Love
TTITLE15=Stevie Wonder - A Place In The Sun
TTITLE16=Diana Ross and The Supremes - You Keep Me Hangin' On
TTITLE17=Four Tops - Reach Out I'll Be There
TTITLE18=Martha Reeves and The Vandellas - I'm Ready For Love
TTITLE19=Temptations - (I Know) I'm Loosing You
TTITLE20=Marvelettes - The Hunter Gets Captured By The Game
TTITLE21=Smokey Robinson and The Miracles - (Come 'Round Here) I'm The One You Need
TTITLE22=Smokey Robinson and The Miracles - The Tears Of A Clown
TTITLE23=Gladys Knight and The Pips - Take Me In Your Arms And Love Me
TTITLE24=Four Tops - Standing In The Shadows Of Love
TTITLE25=Marvelettes - When You're Young And In Love
EXTD=tim1701
EXTT0=
EXTT1=
EXTT2=
EXTT3=
EXTT4=
EXTT5=
EXTT6=
EXTT7=
EXTT8=
EXTT9=
EXTT10=
EXTT11=
EXTT12=
EXTT13=
EXTT14=
EXTT15=
EXTT16=
EXTT17=
EXTT18=
EXTT19=
EXTT20=
EXTT21=
EXTT22=
EXTT23=
EXTT24=
EXTT25=
PLAYORDER=
